<svg width="1723" height="1723" viewBox="0 0 1723 1723" fill="none" xmlns="http://www.w3.org/2000/svg">
<circle cx="861" cy="861" r="725" stroke="black" stroke-width="50"/>
<path d="M1151.21 538.228C1173.9 528.389 1198.08 548.695 1192.32 572.748L1042.05 1199.37C1036.65 1221.88 1008.88 1230.05 992.149 1214.06L753.383 985.812C750.001 982.579 745.91 980.182 741.436 978.812L463.835 893.821C437.168 885.656 435.097 848.704 460.684 837.611L1151.21 538.228Z" fill="#F74F55"/>
<path d="M712.903 1212.58C694.347 1228.58 665.477 1216.79 663.419 1192.38L636.664 875.023C634.781 852.695 657.151 836.259 677.896 844.728L945.858 954.118C966.603 962.587 971.08 989.983 954.11 1004.61L712.903 1212.58Z" fill="#F74F55"/>
<path d="M722.186 1196.49C714.001 1229.55 665.782 1225.55 663.155 1191.59L658.285 1128.65L642.811 948.513L928.087 739.839C956.918 718.75 991.86 756.678 968.482 783.687L775.836 1006.25L725.029 1185L722.186 1196.49Z" fill="#C44347"/>
<path d="M878.266 1692.55C870.632 1706.02 851.258 1706.08 843.536 1692.67L794.5 1607.5H926.5L878.266 1692.55Z" fill="black"/>
<path d="M843.659 30.182C851.347 16.8003 870.653 16.8003 878.341 30.182L926.5 114L795.5 114L843.659 30.182Z" fill="black"/>
<path d="M30.4717 878.374C17.0136 870.701 17.0136 851.299 30.4717 843.626L114 796L114 926L30.4717 878.374Z" fill="black"/>
<path d="M1693.12 843.589C1706.41 851.333 1706.35 870.559 1693 878.216L1608 927V794L1693.12 843.589Z" fill="black"/>
</svg>
