<svg width="44" height="139" viewBox="0 0 44 139" fill="none" xmlns="http://www.w3.org/2000/svg">
<path d="M36.8488 138.473C38.2145 138.676 39.4861 137.733 39.6889 136.367L42.9941 114.111C43.1969 112.746 42.2542 111.474 40.8885 111.271C39.5228 111.068 38.2512 112.011 38.0484 113.377L35.1104 133.16L15.3273 130.222C13.9616 130.019 12.69 130.962 12.4872 132.328C12.2844 133.693 13.2271 134.965 14.5928 135.168L36.8488 138.473ZM35.8575 0.401285C18.9936 11.3169 4.09909 26.1037 1.01532 48.2807C-2.05564 70.3654 6.69845 99.0349 35.2077 137.489L39.2243 134.511C11.0175 96.4651 3.16363 69.1346 5.96767 48.9693C8.75889 28.8963 22.2224 15.1831 38.5744 4.59871L35.8575 0.401285Z" fill="black"/>
</svg>
