<svg width="43" height="140" viewBox="0 0 43 140" fill="none" xmlns="http://www.w3.org/2000/svg">
<path d="M6.38141 139.471C5.01686 139.681 3.73991 138.746 3.52927 137.381L0.09658 115.145C-0.114067 113.78 0.821356 112.503 2.1859 112.293C3.55045 112.082 4.8274 113.017 5.03805 114.382L8.08932 134.148L27.8552 131.097C29.2197 130.886 30.4967 131.821 30.7073 133.186C30.918 134.55 29.9826 135.827 28.618 136.038L6.38141 139.471ZM7.36997 0.908768C24.1022 11.8699 38.8674 26.7114 41.9239 48.9575C44.9675 71.1095 36.2927 99.8778 8.01677 138.477L3.98323 135.523C31.9569 97.3357 39.7535 69.8942 36.9704 49.638C34.2003 29.4759 20.8407 15.7106 4.63008 5.09123L7.36997 0.908768Z" fill="black"/>
</svg>
